<svg xmlns="http://www.w3.org/2000/svg" viewBox="0 0 480 300" role="img" aria-hidden="true">
  <rect width="480" height="300" fill="#faf7f2"/>
  <rect x="20" y="20" width="440" height="260" rx="18" fill="#ffffff" stroke="#e8edf3"/>
  <!-- abstract government building (columns, no emblem) -->
  <rect x="56" y="120" width="168" height="108" rx="8" fill="#0b1f3a"/>
  <path d="M48 120 L140 70 L232 120 Z" fill="#122b4a"/>
  <rect x="78" y="136" width="18" height="72" rx="3" fill="#eef2f7" opacity=".9"/>
  <rect x="110" y="136" width="18" height="72" rx="3" fill="#eef2f7" opacity=".75"/>
  <rect x="142" y="136" width="18" height="72" rx="3" fill="#eef2f7" opacity=".9"/>
  <rect x="174" y="136" width="18" height="72" rx="3" fill="#eef2f7" opacity=".75"/>
  <rect x="64" y="208" width="152" height="12" rx="3" fill="#122b4a"/>
  <!-- scheme document -->
  <rect x="276" y="72" width="132" height="164" rx="12" fill="#eef2f7"/>
  <rect x="294" y="94" width="96" height="10" rx="5" fill="#0b1f3a" opacity=".35"/>
  <rect x="294" y="118" width="78" height="8" rx="4" fill="#0b1f3a" opacity=".2"/>
  <rect x="294" y="138" width="88" height="8" rx="4" fill="#0b1f3a" opacity=".2"/>
  <rect x="294" y="158" width="64" height="8" rx="4" fill="#0b1f3a" opacity=".16"/>
  <rect x="294" y="186" width="72" height="28" rx="8" fill="#f97316"/>
  <!-- connector -->
  <path d="M228 170h40" stroke="#f97316" stroke-width="2.5" stroke-linecap="round"/>
  <circle cx="272" cy="170" r="4" fill="#f97316"/>
</svg>
