<svg xmlns="http://www.w3.org/2000/svg" viewBox="0 0 640 360" fill="none" role="img" aria-hidden="true">
  <rect width="640" height="360" rx="28" fill="#eef2f7"/>
  <circle cx="560" cy="56" r="36" fill="#ffedd5" opacity="0.4"/>
  <rect x="36" y="115" width="110" height="130" rx="14" fill="#fff" stroke="#e2e8f0"/>
  <circle cx="91" cy="165" r="22" fill="none" stroke="#c9a227" stroke-width="6"/>
  <rect x="61" y="208" width="60" height="10" rx="5" fill="#0b1f3a" opacity="0.35"/>
  <path d="M156 180 H186" stroke="#94a3b8" stroke-width="2"/>
  <rect x="196" y="115" width="110" height="130" rx="14" fill="#0b1f3a"/>
  <rect x="214" y="148" width="74" height="8" rx="4" fill="#fff" opacity="0.8"/>
  <rect x="214" y="172" width="54" height="8" rx="4" fill="#f97316"/>
  <path d="M316 180 H346" stroke="#94a3b8" stroke-width="2"/>
  <rect x="356" y="115" width="110" height="130" rx="14" fill="#fff" stroke="#e2e8f0"/>
  <rect x="374" y="148" width="74" height="12" rx="6" fill="#eef2f7"/>
  <rect x="374" y="148" width="44" height="12" rx="6" fill="#f97316"/>
  <rect x="374" y="178" width="74" height="12" rx="6" fill="#eef2f7"/>
  <rect x="374" y="178" width="58" height="12" rx="6" fill="#0b1f3a"/>
  <path d="M476 180 H506" stroke="#94a3b8" stroke-width="2"/>
  <rect x="516" y="115" width="90" height="130" rx="14" fill="#fff7ed" stroke="#f97316"/>
  <circle cx="561" cy="180" r="20" fill="none" stroke="#c9a227" stroke-width="5"/>
</svg>
