<svg xmlns="http://www.w3.org/2000/svg" viewBox="0 0 640 360" fill="none" role="img" aria-hidden="true">
  <rect width="640" height="360" rx="28" fill="#faf7f2"/>
  <circle cx="80" cy="70" r="50" fill="#e8eef5" opacity="0.85"/>
  <circle cx="560" cy="290" r="70" fill="#ffedd5" opacity="0.4"/>
  <circle cx="520" cy="60" r="28" fill="#fff7ed" opacity="0.85"/>

  <!-- Unbranded car silhouette -->
  <path d="M120 230 C140 190, 180 170, 240 168 H360 C400 168, 430 185, 450 220 L480 230 V260 H450 C445 275, 430 285, 415 285 C400 285, 385 275, 380 260 H240 C235 275, 220 285, 205 285 C190 285, 175 275, 170 260 H120 Z" fill="#0b1f3a"/>
  <path d="M200 175 H350 C370 175, 385 185, 395 205 H185 C190 185, 195 175, 200 175 Z" fill="#122b4a"/>
  <circle cx="205" cy="262" r="22" fill="#e8edf3" stroke="#0b1f3a" stroke-width="6"/>
  <circle cx="415" cy="262" r="22" fill="#e8edf3" stroke="#0b1f3a" stroke-width="6"/>
  <rect x="250" y="188" width="36" height="22" rx="4" fill="#e8eef5" opacity="0.5"/>
  <rect x="300" y="188" width="36" height="22" rx="4" fill="#e8eef5" opacity="0.5"/>
  <rect x="280" y="240" width="40" height="8" rx="3" fill="#f97316"/>

  <!-- Down payment chip -->
  <rect x="300" y="100" width="88" height="36" rx="12" fill="#fff" stroke="#e2e8f0" stroke-width="1.5"/>
  <rect x="312" y="112" width="40" height="12" rx="6" fill="#f97316"/>
  <rect x="358" y="112" width="18" height="12" rx="4" fill="#0b1f3a" opacity="0.7"/>

  <!-- Loan document -->
  <rect x="460" y="100" width="100" height="124" rx="14" fill="#0b1f3a"/>
  <rect x="476" y="122" width="68" height="8" rx="4" fill="#fff" opacity="0.28"/>
  <rect x="476" y="140" width="54" height="8" rx="4" fill="#fff" opacity="0.2"/>
  <rect x="476" y="164" width="68" height="28" rx="8" fill="#122b4a"/>
  <circle cx="492" cy="178" r="5" fill="#f97316"/>
  <rect x="504" y="173" width="28" height="10" rx="4" fill="#fff" opacity="0.35"/>

  <!-- EMI calendar -->
  <rect x="460" y="240" width="100" height="40" rx="10" fill="#fff" stroke="#e2e8f0" stroke-width="1.2"/>
  <circle cx="480" cy="260" r="4" fill="#0b1f3a"/>
  <circle cx="500" cy="260" r="4" fill="#0b1f3a"/>
  <circle cx="520" cy="260" r="4" fill="#f97316"/>
  <circle cx="540" cy="260" r="4" fill="#94a3b8"/>

  <!-- Financing timeline -->
  <rect x="100" y="310" width="420" height="10" rx="5" fill="#e8edf3"/>
  <rect x="100" y="310" width="280" height="10" rx="5" fill="#0b1f3a" opacity="0.78"/>
  <circle cx="100" cy="315" r="7" fill="#0b1f3a"/>
  <circle cx="220" cy="315" r="5" fill="#64748b"/>
  <circle cx="340" cy="315" r="5" fill="#64748b"/>
  <circle cx="380" cy="315" r="8" fill="#f97316"/>
  <circle cx="520" cy="315" r="6" fill="#94a3b8"/>
</svg>
